<?xml version="1.0" encoding="UTF-8"?>
<svg id="Layer_1" data-name="Layer 1" xmlns="http://www.w3.org/2000/svg" viewBox="0 0 359.96 384">
  <defs>
    <style>
      .cls-1 {
        fill: #d6d1bf;
        stroke-width: 0px;
      }
    </style>
  </defs>
  <path class="cls-1" d="M293.14,153.45c11.54,0,22.5,0,33.47,0,2.63,0,5.26.02,7.88,0,2.62-.01,4.03,1.2,4.03,3.88-.03,14.19.36,28.39-.21,42.56-.52,13.02-12.68,23.73-26.03,23.78-20.9.07-41.81.02-62.71.02-1.28,0-2.57,0-4.24,0,0,1.73,0,3.13,0,4.52,0,35.17,0,70.35,0,105.52,0,1.19.24,2.5-.16,3.55-.73,1.89-1.59,3.75-4.42,2.2-29.5-16.13-59.06-32.17-88.56-48.31-2.14-1.17-3.72-1.14-5.84.11-26.84,15.76-53.74,31.42-80.63,47.11-.93.54-1.82,1.15-2.79,1.61-3.27,1.56-5.4.29-5.43-3.37-.06-9.3-.02-18.6-.02-27.9,0-22.77-.04-45.55.06-68.32.01-2.44-.83-3.85-2.72-5.26-17.39-12.96-32.86-27.73-42.79-47.36-7.07-13.97-10.46-28.69-6.63-44.28,5.32-21.64,25.04-36.91,47.43-37.06,1.17,0,2.34,0,3.92,0,0-1.51,0-2.79,0-4.06,0-10.37-.05-20.75.01-31.12.09-15.64,12.02-27.77,27.64-27.79,59.72-.07,119.45-.33,179.17.15,17.31.14,29.74,10.27,29.61,29.58-.16,25.16-.04,50.32-.04,75.47v4.76ZM64.9,330.52c1.59-.88,2.73-1.47,3.83-2.11,25.08-14.52,50.21-28.98,75.2-43.66,3.53-2.07,6.23-2.14,9.8-.19,27.2,14.88,54.5,29.58,81.78,44.33.96.52,1.95.97,3.28,1.62,0-2.11,0-3.54,0-4.97-.01-83.95-.03-167.9,0-251.84,0-2.96-.22-6.11.66-8.84,1.46-4.52,3.74-8.78,5.77-13.37-.79,0-2.06,0-3.33,0-51.85,0-103.69,0-155.54,0-1.43,0-2.87.02-4.29.17-9.86,1.11-17.37,8.07-17.8,17.94-.55,12.6-.13,25.25-.13,38.06,10.37,2.53,19.18,7.69,26.36,15.46,16.49-17.85,40.83-21.01,60.35-11.1.88.45,2.76.05,3.55-.66,3.21-2.85,6.15-5.99,9.23-8.99,2.83-2.76,4.38-2.76,7.23.06,6.19,6.13,12.34,12.3,18.5,18.46,3.22,3.23,3.27,5.98.09,9.18-3.7,3.73-7.56,7.3-11.12,11.16-.93,1.01-1.35,2.83-1.34,4.27.03,5.22.87,10.48.44,15.65-1.23,14.78-7.36,27.76-16.07,39.55-16.29,22.05-38.09,37.42-61.45,51.15-7.72,4.54-13.79,4.86-20.8-.55-4.27-3.3-9.22-5.72-14.19-8.73v87.93ZM146.12,117.93c-.5-.24-1.31-.68-2.16-1.02-17.71-7.24-37.31-1.83-49.35,13.62-3.11,3.99-5.02,4.16-7.82.5-8.07-10.55-18.9-15.69-32-16.4-24.22-1.32-44.62,19.09-43.46,43.25.75,15.52,7.07,28.78,16.35,40.79,16.45,21.26,38,36.27,61.29,49.04.83.46,2.37.4,3.22-.07,20.86-11.39,40.21-24.8,56.04-42.75,10.16-11.52,18.07-24.32,20.62-39.76.77-4.67.71-9.48,1.03-14.22-.56-.25-1.12-.49-1.68-.74-5.25,5.5-10.39,11.11-15.77,16.49-17.97,17.96-36.03,35.85-54.06,53.75-3.35,3.32-5.42,3.54-8.22.73-14.04-14.14-28.05-28.3-42.05-42.48-2.42-2.45-2.54-5.45-.12-7.93,6.6-6.73,13.32-13.34,19.99-19.99,2.3-2.29,4.42-1.71,6.5.37,5.73,5.74,11.48,11.47,17.23,17.19.81.81,1.68,1.56,2.2,2.03,17.54-17.61,34.85-34.99,52.2-52.41ZM293.38,216.32c-7.04-6.93-8.69-14.84-8.44-23.51.38-13.68.69-27.36.75-41.04.11-26.57.05-53.15,0-79.72,0-2.24-.21-4.56-.84-6.69-2.82-9.48-12.11-14.99-22.41-13.47-9.77,1.44-16.35,9.15-16.36,19.47-.04,47.31-.02,94.62,0,141.93,0,1.01.16,2.02.25,3.03h47.06ZM94.48,214.05c29.24-30.18,58.1-59.96,86.48-89.25-4.08-4.12-9.32-9.4-14.65-14.77-.6.57-1.48,1.38-2.32,2.21-22.04,21.83-44.08,43.67-66.12,65.49-3.37,3.34-4.71,3.33-8.03.02-6.34-6.31-12.65-12.65-18.66-18.66-5.37,5.43-10.6,10.73-14.85,15.02,12.32,12.9,24.91,26.08,38.15,39.93ZM293.18,160.89c0,12.64-.17,24.91.05,37.16.18,10.24,8.75,17.99,19.61,18.24,9.37.22,18.64-7.8,18.98-17.4.44-12.48.09-25,.05-37.5,0-.18-.29-.35-.43-.51h-38.27Z"/>
  <path class="cls-1" d="M273.28,307.17c1.02-5.54,2.23-11.25,3.03-17.02.2-1.46-.42-3.48-1.41-4.58-3.51-3.89-7.45-7.39-10.99-11.26-.96-1.05-1.83-3.1-1.43-4.23.42-1.17,2.34-2.25,3.76-2.52,5.15-.98,10.35-1.76,15.57-2.27,2.52-.25,3.75-1.41,4.75-3.53,2.17-4.63,4.41-9.24,6.91-13.71.71-1.26,2.3-2.58,3.64-2.75.88-.11,2.34,1.6,2.98,2.79,2.54,4.71,4.73,9.61,7.34,14.29.68,1.22,2.29,2.41,3.65,2.67,5.15.99,10.4,1.43,15.54,2.44,1.66.33,3.78,1.45,4.43,2.81.47.99-.79,3.26-1.86,4.44-3.29,3.61-6.75,7.09-10.36,10.37-1.86,1.69-2.17,3.41-1.7,5.69,1.05,5.13,2.07,10.27,2.8,15.45.2,1.43-.22,3.67-1.19,4.35-.99.7-3.18.35-4.54-.25-5.02-2.19-9.85-4.81-14.89-6.95-1.4-.59-3.51-.61-4.88,0-5.22,2.33-10.25,5.08-15.39,7.58-3.22,1.57-5.83-.13-5.73-3.83ZM274.07,274.21c-.19.34-.38.68-.56,1.01,3.05,2.8,6.26,5.45,9.07,8.48,1.01,1.08,1.55,3.1,1.43,4.62-.32,4.12-1.11,8.2-1.81,12.93,3.82-1.98,7.21-3.45,10.28-5.41,2.83-1.8,5.22-1.56,7.95.06,3.14,1.86,6.47,3.42,10.22,5.37-.71-4.55-1.58-8.51-1.83-12.51-.11-1.76.57-4.02,1.72-5.31,2.66-2.98,5.83-5.52,8.8-8.23-.19-.33-.38-.66-.57-.99-3.72-.61-7.42-1.41-11.16-1.78-2.8-.27-4.56-1.38-5.77-3.96-1.67-3.58-3.69-7.01-5.82-11.01-1.92,4.08-3.15,7.64-5.18,10.66-1.23,1.84-3.52,3.45-5.66,4.11-3.56,1.1-7.39,1.36-11.1,1.97Z"/>
  <path class="cls-1" d="M312,132.33c.71-4.37,1.24-8.03,1.93-11.65.41-2.15.11-3.83-1.69-5.38-2.34-2.02-4.58-4.21-6.54-6.59-.92-1.13-1.69-3.04-1.38-4.32.25-1.01,2.24-1.6,3.47-2.37.09-.06.23-.03.35-.05,4.11-.69,9.06-.23,12.1-2.41,2.99-2.15,3.87-7.09,6-10.6.82-1.34,2.54-2.93,3.86-2.94,1.32-.01,3.11,1.53,3.92,2.87,2.14,3.52,3.01,8.42,5.98,10.65,2.88,2.16,7.79,1.48,11.72,2.44,1.65.4,3.77,1.51,4.35,2.87.44,1.02-.82,3.51-2.02,4.38-6.85,4.97-9.45,11.1-6.33,19.27.4,1.06.37,2.37.22,3.53-.32,2.4-1.99,3.11-4.16,2.64-.9-.2-1.72-.8-2.57-1.24q-11.95-6.29-23.46,1.12c-1.01.65-2.78,1.03-3.75.58-1.04-.48-1.55-2.1-2-2.78ZM315.22,107.69c2.5,2.82,5.46,4.81,6.28,7.46.81,2.63-.53,5.93-1.07,10.03,6.16-5.32,11.93-5.22,18.04-.55-2.74-7.04-1.17-12.43,5.09-16.71-7.97.42-12.26-3.6-14.61-10.65-2.16,6.96-6.34,10.54-13.73,10.41Z"/>
  <path class="cls-1" d="M179.73,228.07c1.4.61,2.49.86,3.29,1.48,2.54,1.97,4.98,4.07,7.43,6.15,2.02,1.72,2.59,3.96.92,5.99-1.75,2.13-3.83,1.11-5.63-.41-2.55-2.15-5.31-4.09-7.59-6.5-.94-.99-1.26-3-1.08-4.45.1-.85,1.73-1.52,2.66-2.27Z"/>
  <path class="cls-1" d="M176.71,244.45c-1.54,1.53-2.61,3.41-4.06,3.78-1.03.27-3.04-1.2-3.82-2.4-1.66-2.57-3.13-5.37-4.02-8.27-.41-1.36.32-3.54,1.32-4.65.55-.62,3.46-.35,4,.43,2.34,3.33,4.21,6.99,6.58,11.11Z"/>
  <path class="cls-1" d="M181.88,215.36c4.03,1.05,7.35,1.62,10.39,2.88,1.1.46,2.44,3.05,2.04,3.81-.72,1.36-2.73,2.95-4.11,2.87-3.02-.17-6.13-1-8.92-2.22-1.23-.54-2.51-2.74-2.4-4.07.1-1.23,2.04-2.3,2.99-3.27Z"/>
</svg>