<?xml version="1.0" encoding="UTF-8"?>
<svg id="Capa_1" xmlns="http://www.w3.org/2000/svg" version="1.1" viewBox="0 0 190.8 190.8">
  <!-- Generator: Adobe Illustrator 29.0.1, SVG Export Plug-In . SVG Version: 2.1.0 Build 192)  -->
  <defs>
    <style>
      .st0 {
        fill: #7a7268;
      }
    </style>
  </defs>
  <path class="st0" d="M80,87.7l-.7,8.7c.8,9.9-1.2,19.8-1.6,29.5-.6,13.9,0,28.3-.4,42.3s-.9,8.4-.7,12.5.9,3.9,0,5c-1.7,1.8-7.1,1.7-9.2.6s-.6-1-.6-1.4c-.5-3.4,0-8-.3-11.6-.9-21.1-3.9-42.2-4.6-63.4s0-5.3-.6-8.2-1.3-4.9-2-6.1-.2-.5-.6-.4c-.5,7.7,0,15.4-.2,23.1s-.2,1.1-.3,1.6c-.4,21-2,42.4-1.6,63.4s.3,1.2.2,1.8c-.2,1.6-1.4.9-2.4,1.1-3.7.5-7.3,1.4-8-3.4s0-7-.2-10.4c-.7-13.5-2.3-26.9-3.3-40.4-1-14.1-2.3-29.7-4.7-43.6,0-.2,0-.6-.3-.6-2.2-.5-5.4.4-7-1s-1.1-5.6-1.2-7.2c-1-17.1-.3-34.4-.5-51.5s-.3-5.6.6-9.3c2.2-8.7,5.7-7.1,12.8-9.5s6.9-2.9,9.9-5c2.5,1.5,3.8,5.2,7.3,4.3s5.3-5.1,6.3-4.7,1,1.2,1.5,1.6c2.6,2,9.2,4.6,12.4,5.3s6.1,0,7.9,4,2.8,10.7,2.6,16c-.6,15.5-.6,31.1-1.2,46.6s.5,7.5-.6,9.2-6.2,1.7-8.5,1.4v-.3h-.2ZM62.9,10.8c.2.2,1.5,1,1.7.9l.5-.6c0-1.6.5-3.5.5-5.1s0-.8-.4-1l-3.6,3.2v.4c.7.6.6,1.6,1.2,2.2,0,0,0,0,.1,0ZM55.6,8.6c.4-.5-2.9-3.6-3.5-3.2l-1.2,5.3,4.6-2.1h.1ZM80.5,85.9c2.4-.2,4.8-.2,7.3,0,.2,0,.2-.2.3-.4.6-1.2.2-8,.3-9.9.5-13.4.4-26.7.7-40.1s1.2-11.8-1.5-19.2-3.2-3.8-7.6-4.7-8.4-3-12.5-5c1.3,4.1,3.1,7.9,3.7,12.2,1,8.1-2.5,20.3-6.4,27.4s-7.3,7.9-5.8,17.8,2.1,12.8,3.3,18.7,1.8,8,2.3,8.4c.3.2.6.2.9.2,2.8,0,10.6-3.4,13-5.2s1.4-1.4,1.6-2.4c.5-4.5-1.8-8.9-2.2-13.4-.4-.6-1.4.5-1.9.7-1.6.7-7.3,2.1-8.6,1.2s-1.7-4.3-1.3-4.8c2.1-.8,4.5-1,6.8-1.6s3.7-1,3.9-1.7c-1-5.8-1.3-11.5-.4-17.3,1.4-8.9,3.1-20.5,6.2-28.8s.9-3,1.9-3.8c-3.7,11.6-6.9,24.1-5.3,36.4.5,0,.4-.2.7-.4.5-.5,1.5-2.2,2-2.4s.4,0,.3.3c-.3,1.8-4.4,4.6-3.5,7.3l4.6-1.4c0,.6,0,.4-.4.6-1.6,1-3.6,1-4.3,3.1s-.2,9.3,0,12.1c.7,5.4,3.2,10.5,1.8,15.9v.2h0ZM50.7,6.7c-5.8,2.5-5.4,8.2-5.1,13.6.5,9.6,3,19.3,7.6,27.6s2.3,4,4,5.4c-3.5-9.7-6.5-19.2-7.6-29.6s-.7-11.3,1.1-17ZM60,51.5c5.6-7.1,8.9-16.5,10.2-25.4s.5-5.3,0-8.5-2.6-9.7-3.5-10.2c-.5,0-.3.2-.3.6-.4,5,1.2,10.5.9,16-.5,9.7-4.5,18.4-7.2,27.5h0ZM46.3,8.6c-1.5.4-2.9,1.1-4.4,1.5s-7.5,1.5-8.4,2.2-1.5,1.9-1.8,2.5c-2.9,5.7-2.1,13.4-2.1,19.7,0,15.4-.5,32.7.5,48,0,.6.2,2.4.3,2.7.3,1.1,1.4.4,2.2.4s4.3.3,4.8-.3l3.9-18.8c-.3-2.4.2-6.3-.3-8.5s-2.1-2.4-2.7-3.5c.7-.5,2,1.5,2.2,1.5.5-.4.4-1.3.3-1.9-.4-2.1-3.2-5.4-3.4-7.2s0-.4.2-.4c.6,1.1,1.2,2.6,2,3.7s0,.4.5.3c0-4.4,1.3-9.2.7-13.6s-3-14.1-4.9-19-1.5-2.4-1.5-3.7c2.3,2.6,3.3,6.8,4.2,10.2,1.5,5.7,3.2,12.7,4,18.5s.3,14.4-.2,21.7c0,.3,3.4,1.1,4,1.2,4.2.9,7.4-.2,5,5.6-.4.8-2.8.6-3.6.5-2.2-.2-4.2-1.4-6.4-1.6l-3,14.2c0,.4.4.5.7.7,1.8,1.1,6.5,2.8,8.7,3.6s4.9,2,5.8,1.2,3.3-10.2,3.8-11.8,1.9-6.1,1.9-7.8c0-3.3-1.8-7.7-1.9-11.2s.7-2.8.4-3.7-3.3-4.3-4-5.3c-5.4-8.4-8.5-19.6-9-29.6s-.3-7.7.4-10.1,1-1.2,1.2-2.1v.2h-.1ZM61.4,9.8h-3.6c-1.2,0-2.1-.7-2.9.1,0,.2,2.2,3.2,2.6,3.5,2.1,1.7,4.4-3.2,3.9-3.6ZM53.7,10.3c-1.2.2-3.2,2-3.4,3.4-.7,4.7.4,11.6,1.2,16.4.8,4.8,1.7,9.5,3.5,13.9.7,0,0-4.4,0-5-.2-4.5-.2-11.4.2-15.8s1.8-7,.9-9.9-1.5-3.1-2.3-2.9h-.1ZM65.8,12.8c-1.5.2-2.4-.8-3.6-1.3-2.9,2.5-1.3,6.3-1,9.6.6,6.6,1.2,13.2.7,19.8.6.2.6-.5.8-.9,3.5-8.2,4.2-18.4,3.1-27.1h0ZM57.3,14.7c-1.3,6.3-1.1,12.5-1.2,18.9s-.3,6.9,0,10.4.7,6.3,2.2,8.7c.3-.2.3-.4.5-.7,2.7-6.3,2.7-11.9,2.5-18.7s-1-12-1.2-18l-.6-.8-2.1.2s0,0-.1,0ZM41.9,58.7c.5-3.9.7-8.3.5-12.2s-.2-2.2-.5-3,0-.7-.5-.8c-.7,4.4-.2,8.9,0,13.3l.5,2.7ZM77.2,59.6c.2-2.2.6-4.5.7-6.6s0-7.1-.4-7.1c-1,3.6-.8,7.3-.8,11,0,0,.5,2.7.5,2.7ZM67.7,71.7c.3.3.8.3,1.2.3,1.4,0,4.8-.7,6.1-1.3s2.4-1.4,2.5-1.7c.3-.6,0-3.1-.9-3s-2.6,1-3.6,1.3-5.6,1-6.1,1.3.5,2.8.8,3.1ZM42.3,66.4c-.5.2-.9,2.7,0,3.3,1.5,1.1,6.5,2,8.2,1.5s1.3-3.1.9-3.3-3.3-.3-4-.4-4.4-1.2-4.9-1.1h-.2ZM79.5,86.3c-.2-.2-4,2.2-4.6,2.5-2.2,1.1-7,3.1-9.3,3.2s-1.7-.4-2.1-1.6c-1.9-5.2-2.7-11-3.7-16.5,0-.3,0-.6-.6-.6s-1,4.3-1.1,4.9c-.8,3.2-1.8,6.8-2.9,9.9s-1.1,3.6-4.7,2.7-3.1-1-4.5-1.5-7.2-3.4-7.6-3c.6,7.9,2.1,15.7,3,23.6s1.5,20.2,2.1,30.4,1.2,8.2,1.6,12.3c.9,9.5.7,19.1,1.4,28.5s.7,5.2,4.1,4.7l.5-1.4-.5-38.3-.9-13.3.7,5.5c.9,11.3.8,22.8.9,34.1s-.3,8.2,0,11.8.2,1.5.4,1.5l3.6-.6.4-25.3c1.5-19.5.7-39.2,1.6-58.7,0-.9,0-7.8.8-7.8.3.2.5.5.6.8,3.9,7,3,11.3,3.4,18.8,1.1,17.2,3,34.4,4.4,51.5l.7,21.1c2.4.7,6.1,1.6,8.2-.1s.2-3.4.2-4.7v-2.3c0-6.5.6-13.2.7-19.7.2-9.5,0-19.1.5-28.5.2-4.4.6-8,.9-12.3.6-7.7.2-15.3.7-23s.7-5.6.9-8.5h.2ZM86.7,86.6h-5.5l-.3.3.3.3h4.2c.2,0,.8-.4,1.3-.2v-.5h0Z"/>
  <path class="st0" d="M142,44.1c4.8,7.5,6.2,16,7,24.7,1.6,18,2.5,36.2,3.7,54.3s1.4,22.2,2.8,32.9c.7,4.9,2.2,10.5,3.9,15.2s1.5,4,2.6,5.8c-.4.3-2.3-2.1-2.6-2.4-5.9-7.8-6.1-17.3-7-26.4-1.2-12.1-2-23.8-2.8-36s-1-8.5-1.2-12.5-.1-1.8,0-2.3.5-.6.6-1c.4-1.3-.7-1.5-.9-2.5-.3-1.8,0-4.3-.2-6.2-.9-9.8-1.5-20.7-3.4-30.3s-2.2-8.7-3.1-13.1h.5v-.2h0Z"/>
  <path class="st0" d="M92.6,172.3c-.2.2-.3.6-.7.8,0-1,.8-2.2,1.2-3.3s.3-1.2.5-1.8c4.4-18.8,4.9-38.3,7.1-57.4,1.4-12.6,3.2-25.5,5.4-38,1.9-10.8,3.7-22,8.7-31.9-2.4-8-6.8-15.3-6.2-23.9l.5-1.7c0,2.1.4,4.2.8,6.3,1.2,5.6,4.3,10.3,5,16.2.5,3.9-.4,4.9-1.3,8.4-2.8,10.8-4.9,21.9-6.7,32.9-.8,4.8-1.2,9.5-2.2,14.3s-.5,5.1-.7,8.4c-.4,6.4-1.7,13.1-2.3,19.5-1.2,14-.7,28.3-4.5,41.9-.9,3.4-1.9,6.9-4.5,9.4h-.1Z"/>
  <path class="st0" d="M93.2,173.4c.4.4,1.2,1.3,1.4,1.8.2.9-.4,1.2-.3,1.9.4.6,4.3,1.7,5.2,1.8,1.2.1,6.8.3,7.2-1.1.2-5.4-.2-10.8,0-16.2.6-14.7,2.7-30.2,4.4-44.8.5-3.9.6-7.9,1.2-11.8s0-1.7.7-2c-.3,3.8-.8,7.5-1.2,11.3-.8,9.5-1.5,19-1.9,28.5-.3,9,.3,19-1,27.8s-1.3,6.9-2.4,8c-2.9,3-11.4,3.1-13.8-.6s.4-1.7.7-2.8-.2-1.2-.2-1.9h0Z"/>
  <path class="st0" d="M150.9,178l-1.9-3.3c-4.9-11-5.3-27.9-5.5-39.9-.3-10.8.2-21.6.2-32.4l.5,2.2c.2,12.9.2,25.7,1.4,38.5,1.1,11.7,3.8,23.3,5.3,34.9h0Z"/>
  <path class="st0" d="M120.9,178.2l-1.2-11c.3-21.5,2.3-43.1,4.5-64.5l.4-1.8c0,5.9-1,11.8-1.4,17.8s0,5.7-.2,8.6c-.2,5.2-.6,10.5-.7,15.8-.2,11.7,1.5,23.7-1.4,35.2h0Z"/>
  <path class="st0" d="M113.9,177.1l-.7-8.5.2-18.1c1.1-13.3,1.2-26.8,3.1-40.1l1.4-7.3c-.2,4.1-1,8.1-1.4,12.2-.8,9.2-.8,19.2-.8,28.5s1.1,20.2-.6,29.7-.3,2.8-1.1,3.7h0Z"/>
  <path class="st0" d="M135.8,182.6c-.3,0-.3-.4-.4-.6-2.6-7-2.7-16.4-2.8-23.9-.3-14.1.4-28.5,2.3-42.5s0-.7.5-.8l-.9,14.5c-.8,14.6.3,29.1,1.6,43.6l-.2,9.6h-.1Z"/>
  <path class="st0" d="M128.6,181.7l-.5-.3-.2-15.3.5-10.7c.2-4.8.7-9.7.9-14.6s-.2-3.4.4-5c.7,4.9.7,9.8.8,14.7.2,7.8.7,16.6-.3,24.3s-1,4.6-1.6,6.9h0Z"/>
  <path class="st0" d="M159.2,178c-1.5,1.4-5.5,4.1-7.5,4.2s-1.4-.2-2.1-.3c-4.5-.1-9.9,7.4-14.5,4.1-1.7-1.3-.3-4-3-3.6.3-.7,1.7-.5,2.3-.3,1.3.5.5,2.8,2.9,2.6,4-.3,6.8-5.4,11.9-5.3s1.7.4,2.6.5c2.4.2,5.2-1.2,7.5-1.9h0Z"/>
  <path class="st0" d="M140.2,42c-.4,0-.4-1.1-.5-1.5-.4-6.5,3.3-12.7,4.5-18.9l1-7.7c.9,3.4.9,7,.4,10.5-.9,6-4.5,11.5-5.5,17.6h.1Z"/>
  <path class="st0" d="M143.4,12.5c-1.8.5-3.6.5-5.4.8-4.2.7-7.7,2.6-11.6,4.1l1.4-1.5c4.5-3.8,8.9-5.3,14.8-3.8s.7,0,.8.5h0Z"/>
  <path class="st0" d="M125.4,17.3c.2.2.2.4.6.4,0,.3,0,.6-.3.4-1.6-.4-4-2.2-5.7-2.9-3.2-1.3-6.8-1.9-10.1-2.9l-.3-.5c6-1,11.6,1.4,15.9,5.4h0Z"/>
  <path class="st0" d="M128.6,38.8c1.1-5.5,4.1-10.5,7.2-15.1-1.6,5.3-3.2,11-7.2,15.1Z"/>
  <path class="st0" d="M126.5,38.5c-.6.7-1.4-2.8-1.5-3.1-.9-3.8-.8-8.1-.6-11.9s0-.7.3-1l1.5,8,.2,8h0Z"/>
  <path class="st0" d="M110.5,181.2c1.5,1.2,6.8,0,8.8.2-2,1.6-8.3,3.3-10,.9s-.4-1.5-.6-2.2-.9-.9-.7-1.4c.4.4,1.2.5,1.6.9s.5,1.3.9,1.6Z"/>
  <path class="st0" d="M121.8,39c-1.6-.6-3-2.4-3.9-3.9-1.4-2.3-2.5-5.3-3.1-8l4.4,6.7,2.6,5.2Z"/>
  <path class="st0" d="M131.1,182.6l-2.9,1.9c-2.8,1.3-7,1.3-8.1-2.1,0-.1,1.7.9,2.1,1,3.1,1,5.8-.4,8.8-.8h0Z"/>
  <path class="st0" d="M120.7,28.6l4.2,10.7c-.3.4-1.8-1.6-2-1.9-1.5-2.3-2.3-5.3-2.7-8s-.2-.9.4-.8h0Z"/>
  <path class="st0" d="M130.9,38.8c-.6-.7,4.7-8.4,6-9.1-1.2,3.4-3,6.9-6,9.1Z"/>
  <path class="st0" d="M139,32.7l-3.4,4.9-2.9,2.1c-.2-.2.8-1.4,1-1.7.5-.8,1.3-1.8,1.9-2.5s3-3.1,3.4-2.8Z"/>
  <path class="st0" d="M145.3,12.1c-.4,0-.2-1-.2-1.2.3-2,1.4-4.8,3-6.2-.5,2.6-1.5,5.1-2.8,7.4Z"/>
  <path class="st0" d="M108.3,11.6c-2.1-1.7-2.3-5-1.6-7.4.4,0,.4.5.5.8.6,2.1.5,4.5,1.1,6.6Z"/>
  <path class="st0" d="M72.3,185.7l-1.6-48c.4,0,.2.5.2.8v3.3c0,1.1.2,1.1.3,1.6.3,7.6.7,15.2.9,22.7s-.2,8.5,0,12.6.7,3.8.7,5.6,0,1.3-.5,1.5h0Z"/>
  <path class="st0" d="M59.4,58.7c-.7-.6,0-2.3,1-2.5,2.1,1,.4,3.7-1,2.5Z"/>
</svg>